<svg width="500" height="500" viewBox="0 0 132.292 132.292" version="1.1" id="svg5" xmlns="http://www.w3.org/2000/svg"><style>@media (prefers-color-scheme:dark){.base{stroke:#6a5deb}}</style><g id="layer1"><g id="g926" transform="translate(0 11.947) scale(1.7494)"><path class="base" style="fill:#32243e;fill-opacity:1;stroke-width:.79375;stroke-linecap:butt;stroke-linejoin:miter;stroke-miterlimit:4;stroke-dasharray:none;stroke-opacity:1" stroke="#211b3b" d="M51.772 40.089c.851 14.854-7.69 28.306-7.69 28.306H.397V47.45c8.166 1.647 19.078 6.197 26.326.413 3.971-3.17 5.885-8.479 7.393-13.331 4.019-12.93 11.175-27.278 24.811-23.858-10.435 3.24-7.973 19.417-7.155 29.414Z" id="path1097"/><path id="rect45130" style="opacity:1;fill:#9a63d4;stroke-width:5.53701;stroke-linecap:square;stroke-linejoin:round;stroke-opacity:.988235" d="M162.464 64.346c-2.534 3.15-4.965 6.458-7.245 9.998 15.632-.944 25.411 3.7 36.091 17.571.277-5.233.938-10.364 1.82-15.227-9.407-10.521-15.1-12.24-30.666-12.342z" transform="scale(.26458)"/><path id="rect45130-8" style="fill:#9a63d4;stroke-width:5.53701;stroke-linecap:square;stroke-linejoin:round;stroke-opacity:.988235" d="M149.912 117.973c-5.863.003-10.3 1.138-16.08 2.506-1.769 5.155-3.187 9.724-4.708 14.46 24.609-5.082 45.585-.165 64.617 11.813-.513-5.792-1.099-11.969-1.611-18.412-13.268-6.234-26.943-10.376-42.218-10.367z" transform="scale(.26458)"/><path id="path56086" style="fill:#9a63d4;stroke-width:5.53701;stroke-linecap:square;stroke-linejoin:round;stroke-opacity:.988235" d="M117.775 162.655c-2.283 4.13-4.856 8.04-7.819 11.584 51.202 19.42 57.307 39.467 64.476 66.33 2.797-5.994 6.016-13.312 8.97-21.668-8.433-20.716-21.996-39.696-65.627-56.246z" transform="scale(.26458)"/><path id="path57128" style="fill:#9a63d4;stroke-width:5.53701;stroke-linecap:square;stroke-linejoin:round;stroke-opacity:.988235" d="M80.673 191.916c-4.89.979-9.974 1.366-15.175 1.295 10.816 19.526 15.793 40.903 12.815 63.748h16.1c1.665-23.313-3.202-45.706-13.74-65.043z" transform="scale(.26458)"/></g></g></svg>